<?xml version="1.0" standalone="no"?>
<!DOCTYPE svg PUBLIC "-//W3C//DTD SVG 20010904//EN"
 "http://www.w3.org/TR/2001/REC-SVG-20010904/DTD/svg10.dtd">
<svg version="1.0" xmlns="http://www.w3.org/2000/svg"
 width="1600.000000pt" height="1600.000000pt" viewBox="0 0 1600.000000 1600.000000"
 preserveAspectRatio="xMidYMid meet">

<g transform="translate(0.000000,1600.000000) scale(0.100000,-0.100000)"
fill="#000000" stroke="none">
<path d="M870 13615 l0 -1515 1515 0 1515 0 0 1515 0 1515 -1515 0 -1515 0 0
-1515z m2590 5 l0 -1080 -1080 0 -1080 0 0 1080 0 1080 1080 0 1080 0 0 -1080z"/>
<path d="M1730 13620 l0 -650 650 0 650 0 0 650 0 650 -650 0 -650 0 0 -650z"/>
<path d="M6490 14480 l0 -650 215 0 215 0 0 -215 0 -215 -215 0 -215 0 0 -215
0 -215 -215 0 -215 0 0 -650 0 -650 -215 0 -215 0 0 -215 0 -215 -220 0 -220
0 0 430 0 430 220 0 220 0 0 220 0 220 -220 0 -220 0 0 215 0 215 220 0 220 0
0 215 0 215 -220 0 -220 0 0 -215 0 -215 -215 0 -215 0 0 650 0 650 215 0 215
0 0 -220 0 -220 435 0 435 0 0 435 0 435 -650 0 -650 0 0 -215 0 -215 -215 0
-215 0 0 -1300 0 -1300 215 0 215 0 0 -215 0 -215 -430 0 -430 0 0 215 0 215
-1085 0 -1085 0 0 -215 0 -215 -215 0 -215 0 0 215 0 215 -215 0 -215 0 0
-215 0 -215 215 0 215 0 0 -215 0 -215 215 0 215 0 0 -220 0 -220 220 0 220 0
0 435 0 435 865 0 865 0 0 -215 0 -215 -220 0 -220 0 0 -220 0 -220 -215 0
-215 0 0 220 0 220 -215 0 -215 0 0 -650 0 -650 -435 0 -435 0 0 215 0 215
-215 0 -215 0 0 215 0 215 -215 0 -215 0 0 -1080 0 -1080 215 0 215 0 0 -215
0 -215 215 0 215 0 0 -215 0 -215 -430 0 -430 0 0 -220 0 -220 430 0 430 0 0
-215 0 -215 -430 0 -430 0 0 -1080 0 -1080 215 0 215 0 0 865 0 865 215 0 215
0 0 -435 0 -435 220 0 220 0 0 865 0 865 430 0 430 0 0 -215 0 -215 -215 0
-215 0 0 -215 0 -215 650 0 650 0 0 215 0 215 215 0 215 0 0 -215 0 -215 215
0 215 0 0 -215 0 -215 -215 0 -215 0 0 -220 0 -220 -215 0 -215 0 0 220 0 220
-220 0 -220 0 0 -220 0 -220 -430 0 -430 0 0 -215 0 -215 -215 0 -215 0 0
-215 0 -215 215 0 215 0 0 215 0 215 430 0 430 0 0 -215 0 -215 435 0 435 0 0
-215 0 -215 215 0 215 0 0 215 0 215 215 0 215 0 0 215 0 215 435 0 435 0 0
215 0 215 430 0 430 0 0 419 0 418 -82 6 c-114 9 -194 31 -335 94 -10 4 -13
-49 -13 -246 l0 -251 -215 0 -215 0 0 215 0 215 -435 0 -435 0 0 215 0 215
469 0 470 0 -33 73 c-73 158 -70 122 -74 930 l-3 727 -414 0 -415 0 0 -430 0
-430 220 0 220 0 0 -220 0 -220 -220 0 -220 0 0 -215 0 -215 -215 0 -215 0 0
435 0 435 -215 0 -215 0 0 215 0 215 -215 0 -215 0 0 215 0 215 215 0 215 0 0
215 0 215 -215 0 -215 0 0 220 0 220 -435 0 -435 0 0 -220 0 -220 435 0 435 0
0 -215 0 -215 -650 0 -650 0 0 650 0 650 865 0 865 0 0 430 0 430 215 0 215 0
0 -215 0 -215 215 0 215 0 0 -430 0 -430 220 0 220 0 0 430 0 430 -220 0 -220
0 0 435 0 435 220 0 220 0 0 215 0 215 215 0 215 0 0 -435 0 -435 215 0 215 0
0 435 0 435 215 0 215 0 0 -215 0 -215 220 0 220 0 0 -220 0 -220 -220 0 -220
0 0 -195 0 -195 435 0 435 0 0 195 0 195 430 0 430 0 0 -195 0 -195 220 0 220
0 0 195 0 195 -220 0 -220 0 0 220 0 220 435 0 435 0 0 215 0 215 -435 0 -435
0 0 215 0 215 865 0 865 0 0 -215 0 -215 -215 0 -215 0 0 -435 0 -435 215 0
215 0 0 435 0 435 220 0 220 0 0 -215 0 -215 215 0 215 0 0 215 0 215 215 0
215 0 0 650 0 650 -215 0 -215 0 0 215 0 215 215 0 215 0 0 430 0 430 -650 0
-650 0 0 220 0 220 -215 0 -215 0 0 215 0 215 215 0 215 0 0 215 0 215 -215 0
-215 0 0 -215 0 -215 -215 0 -215 0 0 215 0 215 -215 0 -215 0 0 -215 0 -215
215 0 215 0 0 -215 0 -215 -435 0 -435 0 0 215 0 215 -865 0 -865 0 0 215 0
215 -215 0 -215 0 0 -650z m2160 -645 l0 -435 220 0 220 0 0 -215 0 -215 430
0 430 0 0 215 0 215 -215 0 -215 0 0 215 0 215 215 0 215 0 0 -215 0 -215 650
0 650 0 0 -215 0 -215 -650 0 -650 0 0 -215 0 -215 215 0 215 0 0 -220 0 -220
220 0 220 0 0 220 0 220 215 0 215 0 0 -220 0 -220 -215 0 -215 0 0 -215 0
-215 215 0 215 0 0 -215 0 -215 -215 0 -215 0 0 215 0 215 -220 0 -220 0 0
215 0 215 -215 0 -215 0 0 220 0 220 -215 0 -215 0 0 -220 0 -220 -215 0 -215
0 0 435 0 435 -220 0 -220 0 0 -650 0 -650 -430 0 -430 0 0 215 0 215 -215 0
-215 0 0 220 0 220 215 0 215 0 0 -220 0 -220 215 0 215 0 0 435 0 435 -215 0
-215 0 0 215 0 215 215 0 215 0 0 215 0 215 -650 0 -650 0 0 220 0 220 865 0
865 0 0 -435z m-1290 -650 l0 -215 -220 0 -220 0 0 -650 0 -650 220 0 220 0 0
-215 0 -215 645 0 645 0 0 -215 0 -215 -645 0 -645 0 0 215 0 215 -220 0 -220
0 0 215 0 215 -215 0 -215 0 0 -215 0 -215 -215 0 -215 0 0 215 0 215 215 0
215 0 0 650 0 650 215 0 215 0 0 215 0 215 220 0 220 0 0 -215z m-2170 -865
l0 -220 -215 0 -215 0 0 220 0 220 215 0 215 0 0 -220z m0 -1295 l0 -215 -215
0 -215 0 0 215 0 215 215 0 215 0 0 -215z m-1290 -870 l0 -215 -220 0 -220 0
0 215 0 215 220 0 220 0 0 -215z m-1730 -1295 l0 -220 -220 0 -220 0 0 -215 0
-215 -215 0 -215 0 0 215 0 215 215 0 215 0 0 220 0 220 220 0 220 0 0 -220z
m1730 -1295 l0 -215 -650 0 -650 0 0 215 0 215 650 0 650 0 0 -215z m-1730
-435 l0 -220 -220 0 -220 0 0 220 0 220 220 0 220 0 0 -220z m1730 -435 l0
-215 -220 0 -220 0 0 215 0 215 220 0 220 0 0 -215z m2160 -1295 l0 -220 -215
0 -215 0 0 220 0 220 215 0 215 0 0 -220z m-2160 -435 l0 -215 -220 0 -220 0
0 215 0 215 220 0 220 0 0 -215z m860 -215 l0 -430 -215 0 -215 0 0 430 0 430
215 0 215 0 0 -430z"/>
<path d="M10820 14915 l0 -215 215 0 215 0 0 -215 0 -215 215 0 215 0 0 215 0
215 -215 0 -215 0 0 215 0 215 -215 0 -215 0 0 -215z"/>
<path d="M12110 13615 l0 -1515 1515 0 1515 0 0 1515 0 1515 -1515 0 -1515 0
0 -1515z m2600 5 l0 -1080 -1080 0 -1080 0 0 1080 0 1080 1080 0 1080 0 0
-1080z"/>
<path d="M12980 13620 l0 -650 650 0 650 0 0 650 0 650 -650 0 -650 0 0 -650z"/>
<path d="M12110 11020 l0 -650 -215 0 -215 0 0 -215 0 -215 -215 0 -215 0 0
-215 0 -215 -435 0 -435 0 0 215 0 215 -430 0 -430 0 0 -34 c0 -30 6 -38 65
-76 151 -99 282 -267 346 -445 l18 -50 0 88 1 87 215 0 215 0 0 -435 0 -435
-200 0 -200 0 0 -215 0 -215 420 0 420 0 0 435 0 435 215 0 215 0 0 -220 0
-220 215 0 215 0 0 -215 0 -215 -215 0 -215 0 0 -215 0 -215 -215 0 -215 0 0
-215 0 -215 -220 0 -220 0 0 215 0 215 -200 0 -200 0 0 -215 0 -215 200 0 200
0 0 -220 0 -220 -199 0 -198 0 -7 -80 c-7 -91 -45 -228 -81 -301 l-25 -49 40
0 40 0 0 -215 0 -215 215 0 215 0 0 -435 0 -435 -215 0 -215 0 0 220 0 220
-1080 0 -1080 0 0 200 0 200 -215 0 -215 0 0 -850 0 -850 645 0 645 0 0 -1300
0 -1300 220 0 220 0 0 -215 0 -215 645 0 645 0 0 -215 0 -215 865 0 865 0 0
215 0 215 -215 0 -215 0 0 215 0 215 -430 0 -430 0 0 220 0 220 645 0 645 0 0
-220 0 -220 435 0 435 0 0 -215 0 -215 -215 0 -215 0 0 -215 0 -215 215 0 215
0 0 215 0 215 215 0 215 0 0 -215 0 -215 650 0 650 0 0 215 0 215 -215 0 -215
0 0 215 0 215 -220 0 -220 0 0 -215 0 -215 -215 0 -215 0 0 215 0 215 -215 0
-215 0 0 220 0 220 650 0 650 0 0 215 0 215 -220 0 -220 0 0 215 0 215 220 0
220 0 0 435 0 435 430 0 430 0 0 215 0 215 -430 0 -430 0 0 215 0 215 215 0
215 0 0 435 0 435 215 0 215 0 0 215 0 215 -215 0 -215 0 0 -215 0 -215 -435
0 -435 0 0 -220 0 -220 -215 0 -215 0 0 435 0 435 215 0 215 0 0 215 0 215
220 0 220 0 0 215 0 215 215 0 215 0 0 220 0 220 215 0 215 0 0 430 0 430
-215 0 -215 0 0 -430 0 -430 -215 0 -215 0 0 215 0 215 -220 0 -220 0 0 215 0
215 220 0 220 0 0 215 0 215 215 0 215 0 0 220 0 220 215 0 215 0 0 215 0 215
-650 0 -650 0 0 215 0 215 650 0 650 0 0 215 0 215 -430 0 -430 0 0 650 0 650
-1085 0 -1085 0 0 -650z m1300 5 l0 -215 215 0 215 0 0 -220 0 -220 -215 0
-215 0 0 220 0 220 -215 0 -215 0 0 -435 0 -435 -215 0 -215 0 0 435 0 435
215 0 215 0 0 215 0 215 215 0 215 0 0 -215z m-1300 -1300 l0 -215 220 0 220
0 0 -215 0 -215 -220 0 -220 0 0 215 0 215 -215 0 -215 0 0 215 0 215 215 0
215 0 0 -215z m1730 -650 l0 -435 -215 0 -215 0 0 -215 0 -215 -215 0 -215 0
0 215 0 215 215 0 215 0 0 220 0 220 -215 0 -215 0 0 215 0 215 430 0 430 0 0
-435z m-1290 -1080 l0 -215 -220 0 -220 0 0 -215 0 -215 -430 0 -430 0 0 -435
0 -435 215 0 215 0 0 215 0 215 215 0 215 0 0 -430 0 -430 220 0 220 0 0 -215
0 -215 215 0 215 0 0 -220 0 -220 215 0 215 0 0 -215 0 -215 -865 0 -865 0 0
435 0 435 215 0 215 0 0 215 0 215 -430 0 -430 0 0 -435 0 -435 -215 0 -215 0
0 -215 0 -215 215 0 215 0 0 -430 0 -430 -435 0 -435 0 0 -220 0 -220 220 0
220 0 0 -215 0 -215 215 0 215 0 0 -215 0 -215 -215 0 -215 0 0 -215 0 -215
-435 0 -435 0 0 -220 0 -220 -430 0 -430 0 0 1085 0 1085 215 0 215 0 0 215 0
215 -435 0 -435 0 0 215 0 215 -430 0 -430 0 0 215 0 215 650 0 650 0 0 -215
0 -215 215 0 215 0 0 215 0 215 215 0 215 0 0 -215 0 -215 215 0 215 0 0 215
0 215 220 0 220 0 0 435 0 435 -220 0 -220 0 0 430 0 430 220 0 220 0 0 220 0
220 215 0 215 0 0 215 0 215 430 0 430 0 0 215 0 215 220 0 220 0 0 -215z
m860 -430 l0 -215 215 0 215 0 0 -220 0 -220 -215 0 -215 0 0 220 0 220 -215
0 -215 0 0 215 0 215 215 0 215 0 0 -215z m-430 -3895 l0 -650 -650 0 -650 0
0 650 0 650 650 0 650 0 0 -650z m860 215 l0 -435 -215 0 -215 0 0 435 0 435
215 0 215 0 0 -435z m-860 -1510 l0 -215 -435 0 -435 0 0 215 0 215 435 0 435
0 0 -215z"/>
<path d="M10820 6265 l0 -215 215 0 215 0 0 215 0 215 -215 0 -215 0 0 -215z"/>
<path d="M12110 5400 l0 -220 220 0 220 0 0 220 0 220 -220 0 -220 0 0 -220z"/>
<path d="M10380 4535 l0 -215 -215 0 -215 0 0 -215 0 -215 -215 0 -215 0 0
-435 0 -435 430 0 430 0 0 -215 0 -215 220 0 220 0 0 215 0 215 -220 0 -220 0
0 215 0 215 -215 0 -215 0 0 220 0 220 215 0 215 0 0 215 0 215 220 0 220 0 0
215 0 215 -220 0 -220 0 0 -215z"/>
<path d="M9520 2375 l0 -215 215 0 215 0 0 215 0 215 -215 0 -215 0 0 -215z"/>
<path d="M12110 3670 l0 -220 220 0 220 0 0 220 0 220 -220 0 -220 0 0 -220z"/>
<path d="M14710 11025 l0 -215 215 0 215 0 0 215 0 215 -215 0 -215 0 0 -215z"/>
<path d="M6061 9658 c0 -213 3 -277 11 -258 45 103 91 182 144 248 62 78 181
181 242 210 27 13 32 21 32 49 l0 33 -215 0 -215 0 1 -282z"/>
<path d="M9540 9515 c13 -14 26 -25 28 -25 3 0 -5 11 -18 25 -13 14 -26 25
-28 25 -3 0 5 -11 18 -25z"/>
<path d="M6439 9503 l-24 -28 28 24 c15 14 27 26 27 28 0 8 -8 1 -31 -24z"/>
<path d="M6281 9134 c0 -11 3 -14 6 -6 3 7 2 16 -1 19 -3 4 -6 -2 -5 -13z"/>
<path d="M9711 9124 c0 -11 3 -14 6 -6 3 7 2 16 -1 19 -3 4 -6 -2 -5 -13z"/>
<path d="M9711 6874 c0 -11 3 -14 6 -6 3 7 2 16 -1 19 -3 4 -6 -2 -5 -13z"/>
<path d="M6281 6864 c0 -11 3 -14 6 -6 3 7 2 16 -1 19 -3 4 -6 -2 -5 -13z"/>
<path d="M6430 6506 c0 -2 8 -10 18 -17 15 -13 16 -12 3 4 -13 16 -21 21 -21
13z"/>
<path d="M9549 6493 c-13 -16 -12 -17 4 -4 9 7 17 15 17 17 0 8 -8 3 -21 -13z"/>
<path d="M9499 6443 c-13 -16 -12 -17 4 -4 16 13 21 21 13 21 -2 0 -10 -8 -17
-17z"/>
<path d="M6868 6283 c7 -3 16 -2 19 1 4 3 -2 6 -13 5 -11 0 -14 -3 -6 -6z"/>
<path d="M9118 6283 c7 -3 16 -2 19 1 4 3 -2 6 -13 5 -11 0 -14 -3 -6 -6z"/>
<path d="M9485 6113 c-16 -9 -57 -27 -90 -39 l-60 -23 93 0 92 -1 0 40 c0 22
-1 40 -2 40 -2 -1 -16 -8 -33 -17z"/>
<path d="M6060 4105 l0 -215 -435 0 -435 0 0 -220 0 -220 220 0 220 0 0 -215
0 -215 -220 0 -220 0 0 -430 0 -430 -215 0 -215 0 0 645 0 645 -215 0 -215 0
0 -865 0 -865 215 0 215 0 0 -215 0 -215 -215 0 -215 0 0 -215 0 -215 215 0
215 0 0 215 0 215 215 0 215 0 0 -215 0 -215 435 0 435 0 0 215 0 215 -215 0
-215 0 0 215 0 215 215 0 215 0 0 220 0 220 1080 0 1080 0 0 215 0 215 -215 0
-215 0 0 215 0 215 215 0 215 0 0 215 0 215 -215 0 -215 0 0 220 0 220 -215 0
-215 0 0 -220 0 -220 -220 0 -220 0 0 -215 0 -215 -215 0 -215 0 0 650 0 650
-215 0 -215 0 0 -215z m1730 -870 l0 -215 -215 0 -215 0 0 215 0 215 215 0
215 0 0 -215z m-1730 -430 l0 -215 -215 0 -215 0 0 215 0 215 215 0 215 0 0
-215z m-430 -865 l0 -220 -220 0 -220 0 0 220 0 220 220 0 220 0 0 -220z"/>
<path d="M870 2375 l0 -1515 1515 0 1515 0 0 1515 0 1515 -1515 0 -1515 0 0
-1515z m2590 -5 l0 -1080 -1080 0 -1080 0 0 1080 0 1080 1080 0 1080 0 0
-1080z"/>
<path d="M1730 2370 l0 -650 650 0 650 0 0 650 0 650 -650 0 -650 0 0 -650z"/>
<path d="M14710 2375 l0 -215 215 0 215 0 0 215 0 215 -215 0 -215 0 0 -215z"/>
<path d="M7790 1505 l0 -215 215 0 215 0 0 -215 0 -215 215 0 215 0 0 215 0
215 -215 0 -215 0 0 215 0 215 -215 0 -215 0 0 -215z"/>
<path d="M6490 1075 l0 -215 215 0 215 0 0 215 0 215 -215 0 -215 0 0 -215z"/>
</g>
</svg>
